<svg version="1.1" id="Layer_1" xmlns="http://www.w3.org/2000/svg" xmlns:xlink="http://www.w3.org/1999/xlink" x="0px" y="0px"
	 width="100%" viewBox="0 0 500 500" enable-background="new 0 0 500 500" xml:space="preserve">
<path fill="#000000" opacity="1.000000" stroke="none" 
	d="
M297.000000,501.000000 
	C198.000031,501.000000 99.500046,501.000000 1.000053,501.000000 
	C1.000035,334.333405 1.000035,167.666794 1.000018,1.000142 
	C167.666565,1.000095 334.333130,1.000095 500.999756,1.000047 
	C500.999847,167.666519 500.999847,334.333038 500.999939,500.999786 
	C433.166656,501.000000 365.333344,501.000000 297.000000,501.000000 
M240.983551,204.709351 
	C235.361496,202.340424 229.739441,199.971497 224.346985,197.699310 
	C223.585037,203.970016 223.199188,210.488785 221.801117,216.782730 
	C221.331131,218.898483 218.383652,221.864502 216.401825,221.999771 
	C208.116333,222.565292 199.756363,222.418350 191.451645,221.990128 
	C189.875092,221.908829 187.167175,219.407608 187.117966,217.950775 
	C186.749420,207.036255 186.917374,196.103607 186.917374,184.826294 
	C197.453171,184.826294 207.547058,184.826294 217.814514,184.826294 
	C217.814514,146.939316 217.814514,109.410896 217.814514,71.794983 
	C175.765442,71.794983 134.007599,71.794983 92.332077,71.794983 
	C92.332077,109.591232 92.332077,147.145264 92.332077,185.013550 
	C100.125481,185.013550 107.574661,185.013550 115.226830,185.013550 
	C113.650566,198.068375 108.701828,208.790054 97.063667,215.202408 
	C92.014351,217.984451 86.537422,220.100449 81.069809,221.981522 
	C75.854630,223.775742 70.398979,224.871017 65.234215,226.225006 
	C69.437668,232.942154 73.472466,239.389786 77.803162,246.310257 
	C92.502609,242.914459 107.079201,238.292557 119.448578,228.329742 
	C133.234161,217.226273 137.870987,201.680023 140.159225,185.161179 
	C148.199692,185.161179 155.801331,185.161179 163.957153,185.161179 
	C163.957153,198.251572 163.613754,211.082260 164.056381,223.885773 
	C164.475845,236.019455 169.796082,242.512344 181.791367,243.412628 
	C196.029129,244.481262 210.418930,244.172760 224.710083,243.617432 
	C232.250305,243.324402 237.950394,238.611557 240.060562,231.232574 
	C242.195938,223.765396 243.417236,216.021439 244.680023,208.339737 
	C244.836288,207.389069 242.787704,206.075958 240.983551,204.709351 
M302.982941,106.328018 
	C320.360321,105.412567 337.737732,104.497116 355.115112,103.581673 
	C355.234070,103.970055 355.353027,104.358437 355.472015,104.746819 
	C326.636841,128.671799 297.801697,152.596786 268.492279,176.915268 
	C274.861572,182.707718 280.854797,188.158173 286.961212,193.711578 
	C288.533905,192.014587 290.531403,189.790924 292.601471,187.637009 
	C303.268860,176.537704 314.474060,166.064728 329.259705,160.668320 
	C346.995697,154.195114 364.710876,153.090942 381.681519,163.059708 
	C390.366608,168.161453 394.920624,175.932465 394.447449,186.254105 
	C393.951447,197.073746 388.942139,205.016464 379.335938,210.322662 
	C378.971588,209.510254 378.685699,209.082291 378.583191,208.614182 
	C373.402679,184.961838 350.561798,174.664291 329.484314,179.013641 
	C313.964905,182.216080 303.009460,195.066574 304.065674,209.587418 
	C305.055695,223.198166 314.083313,230.901321 325.902710,234.731110 
	C350.530121,242.711014 374.833099,240.818085 396.945648,227.091705 
	C428.739197,207.355804 426.971405,161.997314 394.248108,144.545944 
	C381.190033,137.582062 367.155182,135.879517 352.597321,137.510834 
	C350.562836,137.738800 348.518402,137.878082 346.478607,138.058411 
	C346.371643,137.767914 346.264679,137.477417 346.157715,137.186935 
	C363.915436,123.407623 381.673126,109.628311 399.546143,95.759537 
	C396.462372,91.511192 393.200134,86.673660 389.520721,82.177467 
	C388.540131,80.979179 386.249023,80.212830 384.616089,80.300468 
	C377.811920,80.665657 371.039917,81.781586 364.236847,81.988213 
	C340.984131,82.694458 317.723267,83.132828 294.831787,83.664879 
	C294.831787,91.114975 294.831787,99.136826 294.831787,107.324203 
	C297.767822,106.969658 299.915497,106.710312 302.982941,106.328018 
M291.403412,402.861694 
	C307.297638,377.334290 300.598511,348.278961 275.685120,335.010712 
	C264.214264,328.901581 251.849213,326.872406 238.989319,327.633575 
	C234.489502,327.899902 230.013306,328.565186 225.526321,329.048309 
	C225.406158,328.728241 225.285980,328.408203 225.165817,328.088165 
	C242.566208,315.144775 259.966583,302.201385 277.550018,289.121826 
	C274.222809,284.719696 270.596863,279.783875 266.776398,275.003540 
	C266.138397,274.205231 264.633636,273.657043 263.565948,273.711365 
	C248.781418,274.463593 234.012695,275.659515 219.220871,276.097198 
	C204.975235,276.518768 190.707352,276.188446 176.100464,276.188446 
	C176.464706,284.328461 176.818665,292.238342 177.165436,299.987793 
	C195.554092,298.841522 213.632721,297.714600 231.711349,296.587646 
	C231.771149,296.993988 231.830948,297.400330 231.890762,297.806671 
	C204.199326,321.875244 176.507889,345.943817 148.754684,370.066071 
	C155.057327,376.779724 160.747696,382.841187 166.657700,389.136627 
	C168.684845,386.936340 170.435120,384.685303 172.530701,382.822815 
	C181.589264,374.771729 190.025238,365.744934 200.032394,359.097382 
	C217.327072,347.608917 236.644974,344.199585 256.701294,351.348938 
	C272.080658,356.831146 277.861359,371.973938 270.663513,386.259491 
	C267.473572,392.590576 262.277954,396.944824 255.977798,399.991364 
	C243.990463,405.788025 231.141510,407.230011 218.061234,407.026154 
	C209.787506,406.897217 201.521484,406.274170 192.862289,405.853790 
	C194.851059,412.910248 196.963394,419.713135 198.621262,426.625031 
	C199.293015,429.425720 200.450104,430.583374 203.274139,430.470062 
	C217.221146,429.910583 231.323166,430.527710 245.082260,428.634735 
	C263.234161,426.137451 279.750641,419.222290 291.403412,402.861694 
z"/>
<path fill="#FDFDFD" opacity="1.000000" stroke="none" 
	d="
M241.372177,204.820084 
	C242.787704,206.075958 244.836288,207.389069 244.680023,208.339737 
	C243.417236,216.021439 242.195938,223.765396 240.060562,231.232574 
	C237.950394,238.611557 232.250305,243.324402 224.710083,243.617432 
	C210.418930,244.172760 196.029129,244.481262 181.791367,243.412628 
	C169.796082,242.512344 164.475845,236.019455 164.056381,223.885773 
	C163.613754,211.082260 163.957153,198.251572 163.957153,185.161179 
	C155.801331,185.161179 148.199692,185.161179 140.159225,185.161179 
	C137.870987,201.680023 133.234161,217.226273 119.448578,228.329742 
	C107.079201,238.292557 92.502609,242.914459 77.803162,246.310257 
	C73.472466,239.389786 69.437668,232.942154 65.234215,226.225006 
	C70.398979,224.871017 75.854630,223.775742 81.069809,221.981522 
	C86.537422,220.100449 92.014351,217.984451 97.063667,215.202408 
	C108.701828,208.790054 113.650566,198.068375 115.226830,185.013550 
	C107.574661,185.013550 100.125481,185.013550 92.332077,185.013550 
	C92.332077,147.145264 92.332077,109.591232 92.332077,71.794983 
	C134.007599,71.794983 175.765442,71.794983 217.814514,71.794983 
	C217.814514,109.410896 217.814514,146.939316 217.814514,184.826294 
	C207.547058,184.826294 197.453171,184.826294 186.917374,184.826294 
	C186.917374,196.103607 186.749420,207.036255 187.117966,217.950775 
	C187.167175,219.407608 189.875092,221.908829 191.451645,221.990128 
	C199.756363,222.418350 208.116333,222.565292 216.401825,221.999771 
	C218.383652,221.864502 221.331131,218.898483 221.801117,216.782730 
	C223.199188,210.488785 223.585037,203.970016 224.346985,197.699310 
	C229.739441,199.971497 235.361496,202.340424 241.372177,204.820084 
M122.588791,103.642899 
	C146.627045,103.642899 170.665298,103.642899 194.723343,103.642899 
	C194.723343,99.290741 194.723343,95.676506 194.723343,91.862701 
	C167.813461,91.862701 141.097595,91.862701 114.396011,91.862701 
	C114.396011,95.834152 114.396011,99.560440 114.396011,103.642883 
	C117.017853,103.642883 119.319908,103.642883 122.588791,103.642899 
M151.500000,122.047783 
	C139.095139,122.047783 126.690269,122.047783 114.449692,122.047783 
	C114.449692,126.466316 114.449692,130.188858 114.449692,133.786438 
	C141.380600,133.786438 167.949631,133.786438 194.619293,133.786438 
	C194.619293,129.820175 194.619293,126.099350 194.619293,122.047783 
	C180.393829,122.047783 166.446915,122.047783 151.500000,122.047783 
M146.499924,164.833755 
	C162.557571,164.833755 178.615219,164.833755 194.705048,164.833755 
	C194.705048,160.527969 194.705048,156.925278 194.705048,153.081482 
	C167.833191,153.081482 141.165359,153.081482 114.376495,153.081482 
	C114.376495,157.030655 114.376495,160.745865 114.376495,164.833755 
	C124.945862,164.833755 135.222885,164.833755 146.499924,164.833755 
z"/>
<path fill="#FCFCFC" opacity="1.000000" stroke="none" 
	d="
M302.523041,106.389496 
	C299.915497,106.710312 297.767822,106.969658 294.831787,107.324203 
	C294.831787,99.136826 294.831787,91.114975 294.831787,83.664879 
	C317.723267,83.132828 340.984131,82.694458 364.236847,81.988213 
	C371.039917,81.781586 377.811920,80.665657 384.616089,80.300468 
	C386.249023,80.212830 388.540131,80.979179 389.520721,82.177467 
	C393.200134,86.673660 396.462372,91.511192 399.546143,95.759537 
	C381.673126,109.628311 363.915436,123.407623 346.157715,137.186935 
	C346.264679,137.477417 346.371643,137.767914 346.478607,138.058411 
	C348.518402,137.878082 350.562836,137.738800 352.597321,137.510834 
	C367.155182,135.879517 381.190033,137.582062 394.248108,144.545944 
	C426.971405,161.997314 428.739197,207.355804 396.945648,227.091705 
	C374.833099,240.818085 350.530121,242.711014 325.902710,234.731110 
	C314.083313,230.901321 305.055695,223.198166 304.065674,209.587418 
	C303.009460,195.066574 313.964905,182.216080 329.484314,179.013641 
	C350.561798,174.664291 373.402679,184.961838 378.583191,208.614182 
	C378.685699,209.082291 378.971588,209.510254 379.335938,210.322662 
	C388.942139,205.016464 393.951447,197.073746 394.447449,186.254105 
	C394.920624,175.932465 390.366608,168.161453 381.681519,163.059708 
	C364.710876,153.090942 346.995697,154.195114 329.259705,160.668320 
	C314.474060,166.064728 303.268860,176.537704 292.601471,187.637009 
	C290.531403,189.790924 288.533905,192.014587 286.961212,193.711578 
	C280.854797,188.158173 274.861572,182.707718 268.492279,176.915268 
	C297.801697,152.596786 326.636841,128.671799 355.472015,104.746819 
	C355.353027,104.358437 355.234070,103.970055 355.115112,103.581673 
	C337.737732,104.497116 320.360321,105.412567 302.523041,106.389496 
M356.666687,216.625946 
	C355.809387,213.304810 355.397369,209.782364 354.005127,206.703079 
	C350.783234,199.576889 344.020325,195.721817 336.847626,196.522430 
	C332.171539,197.044373 328.044647,198.627914 326.794769,203.847580 
	C325.752289,208.201065 328.219635,212.503387 333.394135,214.789856 
	C336.065247,215.970139 339.049408,216.820312 341.947571,217.021500 
	C346.554932,217.341370 351.208679,216.993439 356.666687,216.625946 
z"/>
<path fill="#FCFCFC" opacity="1.000000" stroke="none" 
	d="
M291.214905,403.169373 
	C279.750641,419.222290 263.234161,426.137451 245.082260,428.634735 
	C231.323166,430.527710 217.221146,429.910583 203.274139,430.470062 
	C200.450104,430.583374 199.293015,429.425720 198.621262,426.625031 
	C196.963394,419.713135 194.851059,412.910248 192.862289,405.853790 
	C201.521484,406.274170 209.787506,406.897217 218.061234,407.026154 
	C231.141510,407.230011 243.990463,405.788025 255.977798,399.991364 
	C262.277954,396.944824 267.473572,392.590576 270.663513,386.259491 
	C277.861359,371.973938 272.080658,356.831146 256.701294,351.348938 
	C236.644974,344.199585 217.327072,347.608917 200.032394,359.097382 
	C190.025238,365.744934 181.589264,374.771729 172.530701,382.822815 
	C170.435120,384.685303 168.684845,386.936340 166.657700,389.136627 
	C160.747696,382.841187 155.057327,376.779724 148.754684,370.066071 
	C176.507889,345.943817 204.199326,321.875244 231.890762,297.806671 
	C231.830948,297.400330 231.771149,296.993988 231.711349,296.587646 
	C213.632721,297.714600 195.554092,298.841522 177.165436,299.987793 
	C176.818665,292.238342 176.464706,284.328461 176.100464,276.188446 
	C190.707352,276.188446 204.975235,276.518768 219.220871,276.097198 
	C234.012695,275.659515 248.781418,274.463593 263.565948,273.711365 
	C264.633636,273.657043 266.138397,274.205231 266.776398,275.003540 
	C270.596863,279.783875 274.222809,284.719696 277.550018,289.121826 
	C259.966583,302.201385 242.566208,315.144775 225.165817,328.088165 
	C225.285980,328.408203 225.406158,328.728241 225.526321,329.048309 
	C230.013306,328.565186 234.489502,327.899902 238.989319,327.633575 
	C251.849213,326.872406 264.214264,328.901581 275.685120,335.010712 
	C300.598511,348.278961 307.297638,377.334290 291.214905,403.169373 
z"/>
<path fill="#0A0A0A" opacity="1.000000" stroke="none" 
	d="
M122.105377,103.642891 
	C119.319908,103.642883 117.017853,103.642883 114.396011,103.642883 
	C114.396011,99.560440 114.396011,95.834152 114.396011,91.862701 
	C141.097595,91.862701 167.813461,91.862701 194.723343,91.862701 
	C194.723343,95.676506 194.723343,99.290741 194.723343,103.642899 
	C170.665298,103.642899 146.627045,103.642899 122.105377,103.642891 
z"/>
<path fill="#030303" opacity="1.000000" stroke="none" 
	d="
M152.000000,122.047783 
	C166.446915,122.047783 180.393829,122.047783 194.619293,122.047783 
	C194.619293,126.099350 194.619293,129.820175 194.619293,133.786438 
	C167.949631,133.786438 141.380600,133.786438 114.449692,133.786438 
	C114.449692,130.188858 114.449692,126.466316 114.449692,122.047783 
	C126.690269,122.047783 139.095139,122.047783 152.000000,122.047783 
z"/>
<path fill="#070707" opacity="1.000000" stroke="none" 
	d="
M145.999908,164.833755 
	C135.222885,164.833755 124.945862,164.833755 114.376495,164.833755 
	C114.376495,160.745865 114.376495,157.030655 114.376495,153.081482 
	C141.165359,153.081482 167.833191,153.081482 194.705048,153.081482 
	C194.705048,156.925278 194.705048,160.527969 194.705048,164.833755 
	C178.615219,164.833755 162.557571,164.833755 145.999908,164.833755 
z"/>
<path fill="#040404" opacity="1.000000" stroke="none" 
	d="
M356.254761,216.776947 
	C351.208679,216.993439 346.554932,217.341370 341.947571,217.021500 
	C339.049408,216.820312 336.065247,215.970139 333.394135,214.789856 
	C328.219635,212.503387 325.752289,208.201065 326.794769,203.847580 
	C328.044647,198.627914 332.171539,197.044373 336.847626,196.522430 
	C344.020325,195.721817 350.783234,199.576889 354.005127,206.703079 
	C355.397369,209.782364 355.809387,213.304810 356.254761,216.776947 
z"/>
</svg>