<svg version="1.1" id="Layer_1" xmlns="http://www.w3.org/2000/svg" xmlns:xlink="http://www.w3.org/1999/xlink" x="0px" y="0px"
	 width="100%" viewBox="0 0 500 500" enable-background="new 0 0 500 500" xml:space="preserve">
<path fill="#000000" opacity="1.000000" stroke="none" 
	d="
M297.000000,501.000000 
	C198.000031,501.000000 99.500046,501.000000 1.000053,501.000000 
	C1.000035,334.333405 1.000035,167.666794 1.000018,1.000142 
	C167.666565,1.000095 334.333130,1.000095 500.999756,1.000047 
	C500.999847,167.666519 500.999847,334.333038 500.999939,500.999786 
	C433.166656,501.000000 365.333344,501.000000 297.000000,501.000000 
M240.983582,204.709290 
	C235.366714,202.355988 229.749863,200.002670 224.347473,197.739227 
	C223.598709,203.934845 222.951080,210.222168 222.036880,216.470520 
	C221.572067,219.647324 220.004898,222.228439 216.280624,222.242828 
	C207.956329,222.274963 199.622696,222.386536 191.315247,221.993210 
	C189.806885,221.921783 187.186218,219.639542 187.145782,218.314850 
	C186.808014,207.247025 186.953873,196.164444 186.953873,184.741577 
	C197.551407,184.741577 207.645187,184.741577 217.765228,184.741577 
	C217.765228,146.867142 217.765228,109.348923 217.765228,71.836037 
	C175.687775,71.836037 133.951111,71.836037 92.373047,71.836037 
	C92.373047,109.665588 92.373047,147.211792 92.373047,185.086121 
	C100.176506,185.086121 107.607269,185.086121 115.220490,185.086121 
	C113.624588,198.579102 108.217529,209.370346 96.164276,215.786652 
	C91.362488,218.342819 86.182114,220.289322 81.008224,222.016556 
	C75.792938,223.757599 70.371864,224.882248 65.242691,226.224167 
	C69.472420,232.984268 73.504814,239.428986 77.811195,246.311615 
	C92.552307,242.922974 107.110817,238.247986 119.476746,228.301636 
	C133.265350,217.210922 137.837158,201.634293 140.169220,185.169800 
	C148.217468,185.169800 155.815460,185.169800 163.958206,185.169800 
	C163.958206,198.268616 163.613998,211.099075 164.057739,223.902237 
	C164.477966,236.027603 169.805511,242.517578 181.803940,243.415771 
	C196.040176,244.481461 210.428345,244.177963 224.716980,243.614151 
	C232.244797,243.317123 237.954483,238.609360 240.062561,231.229080 
	C242.195419,223.762070 243.417831,216.019684 244.680145,208.338943 
	C244.836349,207.388489 242.787750,206.075684 240.983582,204.709290 
M302.987152,106.327621 
	C320.363647,105.412109 337.740112,104.496597 355.116608,103.581085 
	C355.235199,103.971031 355.353821,104.360977 355.472443,104.750923 
	C326.636566,128.675522 297.800690,152.600113 268.516083,176.897003 
	C274.828888,182.748978 280.768341,188.254852 286.820801,193.865463 
	C288.538910,192.008743 290.533508,189.781326 292.604492,187.627319 
	C303.274384,176.529541 314.485504,166.065933 329.268890,160.662277 
	C347.191193,154.111252 365.099762,153.065063 382.121887,163.299316 
	C390.716278,168.466537 395.075928,176.412018 394.418457,186.757248 
	C393.742828,197.387131 388.771362,205.137344 379.335205,210.323090 
	C378.970490,209.508591 378.685211,209.080429 378.582550,208.612244 
	C373.393616,184.945175 350.544678,174.664536 329.478760,179.015106 
	C313.958649,182.220367 303.008698,195.073654 304.065643,209.595917 
	C305.038300,222.959396 313.817932,230.694351 325.449341,234.550476 
	C350.214264,242.760742 374.666382,240.917389 396.930450,227.066635 
	C428.750427,207.270996 426.990540,161.999054 394.247559,144.549622 
	C381.198853,137.595718 367.165436,135.875015 352.610840,137.507874 
	C350.575470,137.736221 348.530609,137.880051 346.490173,138.062988 
	C346.373749,137.767776 346.257324,137.472549 346.140900,137.177322 
	C363.902496,123.401665 381.664093,109.626007 399.544098,95.758499 
	C396.660858,91.790024 393.254211,87.467957 390.278931,82.866943 
	C388.522766,80.151154 386.589172,79.835114 383.616699,80.292419 
	C378.036560,81.150879 372.381134,81.779640 366.740814,81.942207 
	C342.652893,82.636513 318.559052,83.125687 294.836975,83.681046 
	C294.836975,91.109146 294.836975,99.129929 294.836975,107.316612 
	C297.776794,106.964355 299.922760,106.707214 302.987152,106.327621 
M291.376495,402.842102 
	C307.532623,377.463867 300.569427,348.042633 275.220703,334.784271 
	C263.856293,328.840210 251.645981,326.900177 238.966232,327.636505 
	C234.461288,327.898102 229.980209,328.571014 225.488220,329.056152 
	C225.367371,328.736572 225.246521,328.416962 225.125656,328.097382 
	C242.525284,315.161499 259.924896,302.225616 277.517487,289.146271 
	C274.221161,284.765411 270.633881,279.814880 266.796936,275.066071 
	C266.101013,274.204742 264.357513,273.747253 263.139954,273.819305 
	C252.346191,274.457947 241.570740,275.696716 230.772995,275.911835 
	C212.680542,276.272186 194.575684,276.010315 176.094772,276.010315 
	C176.467789,284.296753 176.823837,292.206543 177.173096,299.965240 
	C195.536011,298.829742 213.618820,297.711578 231.701630,296.593384 
	C231.772781,297.001892 231.843933,297.410370 231.915085,297.818878 
	C204.280136,321.819092 176.645187,345.819336 148.782516,370.017303 
	C154.930847,376.598602 160.679413,382.751984 166.554626,389.040924 
	C167.461166,388.083282 168.254547,387.251282 169.041336,386.413086 
	C179.651047,375.109894 190.212616,363.681000 204.183884,356.391846 
	C220.939850,347.649872 238.515564,344.726227 256.697968,351.322723 
	C271.853882,356.821167 277.707184,371.508118 270.885773,385.803040 
	C267.749146,392.376129 262.446136,396.857513 255.985458,399.988739 
	C244.001328,405.796875 231.152649,407.236359 218.071274,407.026855 
	C209.795715,406.894379 201.527969,406.274994 192.864136,405.854919 
	C194.856491,412.904236 196.961746,419.704224 198.639221,426.608154 
	C199.308899,429.364319 200.434555,430.319244 203.255188,430.517365 
	C219.296936,431.644318 235.258514,431.243958 250.959091,427.617371 
	C266.862762,423.943939 281.201813,417.391937 291.376495,402.842102 
z"/>
<path fill="#FDFDFD" opacity="1.000000" stroke="none" 
	d="
M241.372192,204.820038 
	C242.787750,206.075684 244.836349,207.388489 244.680145,208.338943 
	C243.417831,216.019684 242.195419,223.762070 240.062561,231.229080 
	C237.954483,238.609360 232.244797,243.317123 224.716980,243.614151 
	C210.428345,244.177963 196.040176,244.481461 181.803940,243.415771 
	C169.805511,242.517578 164.477966,236.027603 164.057739,223.902237 
	C163.613998,211.099075 163.958206,198.268616 163.958206,185.169800 
	C155.815460,185.169800 148.217468,185.169800 140.169220,185.169800 
	C137.837158,201.634293 133.265350,217.210922 119.476746,228.301636 
	C107.110817,238.247986 92.552307,242.922974 77.811195,246.311615 
	C73.504814,239.428986 69.472420,232.984268 65.242691,226.224167 
	C70.371864,224.882248 75.792938,223.757599 81.008224,222.016556 
	C86.182114,220.289322 91.362488,218.342819 96.164276,215.786652 
	C108.217529,209.370346 113.624588,198.579102 115.220490,185.086121 
	C107.607269,185.086121 100.176506,185.086121 92.373047,185.086121 
	C92.373047,147.211792 92.373047,109.665588 92.373047,71.836037 
	C133.951111,71.836037 175.687775,71.836037 217.765228,71.836037 
	C217.765228,109.348923 217.765228,146.867142 217.765228,184.741577 
	C207.645187,184.741577 197.551407,184.741577 186.953873,184.741577 
	C186.953873,196.164444 186.808014,207.247025 187.145782,218.314850 
	C187.186218,219.639542 189.806885,221.921783 191.315247,221.993210 
	C199.622696,222.386536 207.956329,222.274963 216.280624,222.242828 
	C220.004898,222.228439 221.572067,219.647324 222.036880,216.470520 
	C222.951080,210.222168 223.598709,203.934845 224.347473,197.739227 
	C229.749863,200.002670 235.366714,202.355988 241.372192,204.820038 
M132.501373,91.627304 
	C126.422813,91.627304 120.344254,91.627304 114.292175,91.627304 
	C114.292175,95.919708 114.292175,99.526039 114.292175,103.357712 
	C141.189224,103.357712 167.865814,103.357712 194.607635,103.357712 
	C194.607635,99.359001 194.607635,95.649475 194.607635,91.627342 
	C174.033554,91.627342 153.767319,91.627342 132.501373,91.627304 
M151.500000,122.047783 
	C139.095139,122.047783 126.690269,122.047783 114.449677,122.047783 
	C114.449677,126.466316 114.449677,130.188858 114.449677,133.786438 
	C141.380585,133.786438 167.949615,133.786438 194.619278,133.786438 
	C194.619278,129.820190 194.619278,126.099358 194.619278,122.047783 
	C180.393814,122.047783 166.446899,122.047783 151.500000,122.047783 
M146.499924,164.833755 
	C162.557571,164.833755 178.615234,164.833755 194.705048,164.833755 
	C194.705048,160.527969 194.705048,156.925278 194.705048,153.081482 
	C167.833191,153.081482 141.165359,153.081482 114.376495,153.081482 
	C114.376495,157.030670 114.376495,160.745880 114.376495,164.833755 
	C124.945923,164.833755 135.222916,164.833755 146.499924,164.833755 
z"/>
<path fill="#FCFCFC" opacity="1.000000" stroke="none" 
	d="
M302.527954,106.388847 
	C299.922760,106.707214 297.776794,106.964355 294.836975,107.316612 
	C294.836975,99.129929 294.836975,91.109146 294.836975,83.681046 
	C318.559052,83.125687 342.652893,82.636513 366.740814,81.942207 
	C372.381134,81.779640 378.036560,81.150879 383.616699,80.292419 
	C386.589172,79.835114 388.522766,80.151154 390.278931,82.866943 
	C393.254211,87.467957 396.660858,91.790024 399.544098,95.758499 
	C381.664093,109.626007 363.902496,123.401665 346.140900,137.177322 
	C346.257324,137.472549 346.373749,137.767776 346.490173,138.062988 
	C348.530609,137.880051 350.575470,137.736221 352.610840,137.507874 
	C367.165436,135.875015 381.198853,137.595718 394.247559,144.549622 
	C426.990540,161.999054 428.750427,207.270996 396.930450,227.066635 
	C374.666382,240.917389 350.214264,242.760742 325.449341,234.550476 
	C313.817932,230.694351 305.038300,222.959396 304.065643,209.595917 
	C303.008698,195.073654 313.958649,182.220367 329.478760,179.015106 
	C350.544678,174.664536 373.393616,184.945175 378.582550,208.612244 
	C378.685211,209.080429 378.970490,209.508591 379.335205,210.323090 
	C388.771362,205.137344 393.742828,197.387131 394.418457,186.757248 
	C395.075928,176.412018 390.716278,168.466537 382.121887,163.299316 
	C365.099762,153.065063 347.191193,154.111252 329.268890,160.662277 
	C314.485504,166.065933 303.274384,176.529541 292.604492,187.627319 
	C290.533508,189.781326 288.538910,192.008743 286.820801,193.865463 
	C280.768341,188.254852 274.828888,182.748978 268.516083,176.897003 
	C297.800690,152.600113 326.636566,128.675522 355.472443,104.750923 
	C355.353821,104.360977 355.235199,103.971031 355.116608,103.581085 
	C337.740112,104.496597 320.363647,105.412109 302.527954,106.388847 
M356.666626,216.625931 
	C355.809906,213.305847 355.411530,209.775742 354.005646,206.707260 
	C350.563324,199.194046 343.443878,195.462387 335.867798,196.667435 
	C331.513489,197.360046 327.804260,199.097977 326.817688,203.849670 
	C325.790100,208.798859 328.357788,212.252701 332.541473,214.290848 
	C335.306213,215.637741 338.418701,216.703659 341.454712,216.961060 
	C346.215576,217.364716 351.043335,216.979202 356.666626,216.625931 
z"/>
<path fill="#FCFCFC" opacity="1.000000" stroke="none" 
	d="
M291.183960,403.147369 
	C281.201813,417.391937 266.862762,423.943939 250.959091,427.617371 
	C235.258514,431.243958 219.296936,431.644318 203.255188,430.517365 
	C200.434555,430.319244 199.308899,429.364319 198.639221,426.608154 
	C196.961746,419.704224 194.856491,412.904236 192.864136,405.854919 
	C201.527969,406.274994 209.795715,406.894379 218.071274,407.026855 
	C231.152649,407.236359 244.001328,405.796875 255.985458,399.988739 
	C262.446136,396.857513 267.749146,392.376129 270.885773,385.803040 
	C277.707184,371.508118 271.853882,356.821167 256.697968,351.322723 
	C238.515564,344.726227 220.939850,347.649872 204.183884,356.391846 
	C190.212616,363.681000 179.651047,375.109894 169.041336,386.413086 
	C168.254547,387.251282 167.461166,388.083282 166.554626,389.040924 
	C160.679413,382.751984 154.930847,376.598602 148.782516,370.017303 
	C176.645187,345.819336 204.280136,321.819092 231.915085,297.818878 
	C231.843933,297.410370 231.772781,297.001892 231.701630,296.593384 
	C213.618820,297.711578 195.536011,298.829742 177.173096,299.965240 
	C176.823837,292.206543 176.467789,284.296753 176.094772,276.010315 
	C194.575684,276.010315 212.680542,276.272186 230.772995,275.911835 
	C241.570740,275.696716 252.346191,274.457947 263.139954,273.819305 
	C264.357513,273.747253 266.101013,274.204742 266.796936,275.066071 
	C270.633881,279.814880 274.221161,284.765411 277.517487,289.146271 
	C259.924896,302.225616 242.525284,315.161499 225.125656,328.097382 
	C225.246521,328.416962 225.367371,328.736572 225.488220,329.056152 
	C229.980209,328.571014 234.461288,327.898102 238.966232,327.636505 
	C251.645981,326.900177 263.856293,328.840210 275.220703,334.784271 
	C300.569427,348.042633 307.532623,377.463867 291.183960,403.147369 
z"/>
<path fill="#0A0A0A" opacity="1.000000" stroke="none" 
	d="
M133.001221,91.627319 
	C153.767319,91.627342 174.033554,91.627342 194.607635,91.627342 
	C194.607635,95.649475 194.607635,99.359001 194.607635,103.357712 
	C167.865814,103.357712 141.189224,103.357712 114.292175,103.357712 
	C114.292175,99.526039 114.292175,95.919708 114.292175,91.627304 
	C120.344254,91.627304 126.422813,91.627304 133.001221,91.627319 
z"/>
<path fill="#030303" opacity="1.000000" stroke="none" 
	d="
M152.000000,122.047783 
	C166.446899,122.047783 180.393814,122.047783 194.619278,122.047783 
	C194.619278,126.099358 194.619278,129.820190 194.619278,133.786438 
	C167.949615,133.786438 141.380585,133.786438 114.449677,133.786438 
	C114.449677,130.188858 114.449677,126.466316 114.449677,122.047783 
	C126.690269,122.047783 139.095139,122.047783 152.000000,122.047783 
z"/>
<path fill="#070707" opacity="1.000000" stroke="none" 
	d="
M145.999908,164.833755 
	C135.222916,164.833755 124.945923,164.833755 114.376495,164.833755 
	C114.376495,160.745880 114.376495,157.030670 114.376495,153.081482 
	C141.165359,153.081482 167.833191,153.081482 194.705048,153.081482 
	C194.705048,156.925278 194.705048,160.527969 194.705048,164.833755 
	C178.615234,164.833755 162.557571,164.833755 145.999908,164.833755 
z"/>
<path fill="#040404" opacity="1.000000" stroke="none" 
	d="
M356.254700,216.776917 
	C351.043335,216.979202 346.215576,217.364716 341.454712,216.961060 
	C338.418701,216.703659 335.306213,215.637741 332.541473,214.290848 
	C328.357788,212.252701 325.790100,208.798859 326.817688,203.849670 
	C327.804260,199.097977 331.513489,197.360046 335.867798,196.667435 
	C343.443878,195.462387 350.563324,199.194046 354.005646,206.707260 
	C355.411530,209.775742 355.809906,213.305847 356.254700,216.776917 
z"/>
</svg>