<svg version="1.1" id="Layer_1" xmlns="http://www.w3.org/2000/svg" xmlns:xlink="http://www.w3.org/1999/xlink" x="0px" y="0px"
	 width="100%" viewBox="0 0 496 496" enable-background="new 0 0 496 496" xml:space="preserve">
<path fill="#000000" opacity="1.000000" stroke="none" 
	d="
M181.399078,152.957672 
	C173.650757,153.100906 166.325500,153.806854 159.054520,152.415604 
	C152.680542,151.195984 150.715027,149.283493 149.347473,142.799561 
	C148.095688,136.864639 148.924820,130.850342 148.739822,124.875153 
	C148.660904,122.326340 148.506378,119.826561 145.134491,120.373856 
	C142.009201,120.881119 137.403534,117.908981 136.294083,123.834755 
	C133.337418,139.626633 125.346992,148.476944 104.217522,153.621460 
	C102.579292,154.020325 101.373047,153.960297 100.421631,152.322357 
	C98.595200,149.178009 96.626823,146.116135 94.543938,142.738907 
	C97.443108,140.625031 100.851486,140.593307 103.889381,139.582245 
	C111.591995,137.018753 118.168053,133.269775 120.950714,124.903275 
	C122.041245,121.624413 121.367897,120.369774 117.793816,120.216469 
	C109.045097,119.841179 109.049294,119.727150 109.046959,111.141830 
	C109.042564,94.991562 109.133186,78.840355 108.972679,62.691643 
	C108.929565,58.353275 110.056152,56.502430 114.872360,56.561291 
	C134.849045,56.805431 154.831299,56.743885 174.809677,56.576294 
	C178.894241,56.542030 180.352951,57.812347 180.312531,61.973717 
	C180.141129,79.620850 180.141464,97.271446 180.303085,114.918724 
	C180.341644,119.129967 178.727478,120.719933 174.706070,120.287697 
	C173.883072,120.199234 173.042465,120.275810 172.209976,120.274345 
	C161.923325,120.256340 161.916336,120.256622 162.499893,130.763229 
	C162.592178,132.424606 162.737869,134.085861 162.941681,135.736954 
	C163.041916,136.549011 163.064133,137.708206 163.577515,138.078781 
	C168.046204,141.304428 173.156067,139.476456 177.963791,139.471771 
	C181.114227,139.468704 181.288589,136.303223 181.654907,133.817413 
	C182.005676,131.437103 181.046585,128.808304 183.191971,126.342400 
	C186.476532,127.688980 189.816040,129.036057 193.133881,130.434555 
	C193.916626,130.764496 194.404800,131.388855 194.640091,132.280518 
	C196.796646,140.452835 190.257767,151.001831 181.399078,152.957672 
M126.006264,73.945549 
	C137.975464,73.932228 149.944733,73.934380 161.913803,73.889526 
	C163.791321,73.882492 165.719955,73.730270 165.719421,71.080879 
	C165.718948,68.779839 164.163391,68.400192 162.350754,68.399170 
	C150.215469,68.392296 138.080170,68.390114 125.944916,68.406456 
	C124.384789,68.408554 122.869392,68.657158 122.530121,70.571091 
	C122.168755,72.609634 123.060097,73.750519 126.006264,73.945549 
M160.209961,85.325401 
	C149.090088,85.329971 137.970200,85.321823 126.850388,85.350914 
	C124.867256,85.356094 122.556030,85.157211 122.486420,88.089897 
	C122.412643,91.198685 124.872238,90.760971 126.773735,90.768326 
	C138.225311,90.812630 149.677277,90.818703 161.128754,90.764084 
	C162.995544,90.755180 165.492081,91.314545 165.661041,88.288780 
	C165.851334,84.881149 163.207672,85.446518 160.209961,85.325401 
M165.141846,106.896233 
	C166.203857,104.449997 165.994247,102.423302 162.829620,102.399353 
	C150.374298,102.305092 137.917755,102.359146 125.461716,102.380936 
	C123.461967,102.384430 122.327415,103.390640 122.459442,105.471245 
	C122.588264,107.501480 124.088051,107.735497 125.676292,107.722366 
	C138.619125,107.615356 151.561874,107.497459 165.141846,106.896233 
z"/>
<path fill="#000000" opacity="1.000000" stroke="none" 
	d="
M227.052277,98.035004 
	C235.887207,90.737312 244.446823,83.664177 253.006424,76.591042 
	C252.854721,76.179901 252.703018,75.768761 252.551315,75.357613 
	C244.021637,75.801811 235.454803,75.907578 226.978531,76.838272 
	C222.963226,77.279167 221.736633,76.449493 221.367874,72.467812 
	C220.459000,62.654377 220.272247,62.739277 229.834091,62.795948 
	C243.488083,62.876869 257.140411,62.788612 270.753479,61.499939 
	C273.639587,61.226727 278.480347,65.497414 279.677765,69.405327 
	C280.700775,72.743980 277.602417,73.147987 275.878174,74.304466 
	C267.992126,79.593811 260.880646,85.823563 252.709045,92.522942 
	C258.796112,92.918251 263.897919,92.417419 268.891693,93.715118 
	C281.778870,97.064018 290.864014,106.501984 291.322174,117.425468 
	C291.929962,131.916580 284.740021,142.750992 271.174194,147.221649 
	C260.680573,150.679855 250.017731,151.616104 239.343124,147.849548 
	C230.067764,144.576706 225.406937,137.640793 226.811661,129.369492 
	C228.126892,121.625160 235.746124,115.799744 244.748093,115.655869 
	C256.927399,115.461220 260.674316,117.862213 269.443512,131.645584 
	C274.297119,129.851578 275.902863,125.604973 276.444946,121.202705 
	C277.135345,115.595505 274.429657,111.034409 269.696808,108.183868 
	C259.843658,102.249428 249.597809,103.307266 239.501434,107.547409 
	C232.306320,110.569115 226.439621,115.597206 221.425369,121.453941 
	C218.297363,125.107498 216.125183,125.346802 212.836288,121.582260 
	C206.565842,114.405045 205.391068,116.098328 213.376007,109.499550 
	C217.870071,105.785652 222.311707,102.008316 227.052277,98.035004 
M253.377991,136.633072 
	C253.899826,136.278000 254.821396,135.980362 254.881927,135.559036 
	C255.517334,131.135468 249.469131,125.643898 245.042435,126.670006 
	C242.906326,127.165161 240.790085,128.083252 240.445648,130.650391 
	C240.102142,133.210480 241.831970,134.563232 243.823181,135.660400 
	C246.620667,137.201813 249.657776,136.665466 253.377991,136.633072 
z"/>
<path fill="#000000" opacity="1.000000" stroke="none" 
	d="
M167.042862,376.081360 
	C170.776489,369.514801 173.691467,362.958771 175.760864,356.096619 
	C176.933151,352.209351 178.787109,351.252472 182.699280,352.207825 
	C192.329514,354.559509 192.364120,354.397858 189.229553,364.072174 
	C189.033844,364.676178 188.992661,365.330261 188.689331,367.022369 
	C195.093704,367.022369 201.177673,367.344666 207.206543,366.907257 
	C211.121124,366.623260 214.331116,367.931488 217.716858,369.329620 
	C220.435562,370.452301 220.975876,372.181396 220.202927,374.871155 
	C218.177338,381.919800 216.026794,388.936615 212.818848,395.531982 
	C211.346481,398.559052 211.470596,401.051575 212.932190,403.989868 
	C220.035950,418.270630 230.072113,429.686829 244.425430,437.032288 
	C245.718826,437.694214 247.284531,438.057434 247.995605,440.003693 
	C245.588196,443.125092 243.045380,446.370026 240.561829,449.659668 
	C238.784607,452.013702 237.064941,450.601318 235.332047,449.667236 
	C222.491486,442.746033 213.059860,432.387573 205.540146,420.102386 
	C204.686050,418.707001 203.808182,417.326141 202.787766,415.692719 
	C199.304718,417.795441 197.645020,421.152130 195.362106,423.858246 
	C186.206696,434.710754 175.225830,443.166565 162.741898,449.857208 
	C159.027573,451.847870 156.796417,451.409058 154.553772,447.825226 
	C152.837051,445.081818 150.386475,442.797638 147.682983,439.630585 
	C174.246140,428.138428 192.283066,409.357269 202.292542,381.404938 
	C195.060623,381.404938 188.832703,381.299133 182.611923,381.463165 
	C180.476715,381.519501 179.906250,383.712677 179.016434,385.268219 
	C174.193848,393.698975 168.431808,401.400208 161.589005,408.316071 
	C159.415787,410.512421 157.701324,410.897095 155.321579,408.575043 
	C152.732254,406.048523 149.789429,403.884308 146.494370,401.140472 
	C154.701920,393.700775 161.680664,385.758789 167.042862,376.081360 
z"/>
<path fill="#000000" opacity="1.000000" stroke="none" 
	d="
M381.770020,118.848267 
	C381.238251,109.926178 375.355988,104.938225 365.604858,104.292358 
	C353.701996,103.503952 343.800171,107.916595 335.134064,115.609077 
	C332.027191,118.366882 329.161835,121.407921 326.302856,124.429985 
	C324.417175,126.423248 322.939697,126.401314 320.867188,124.505745 
	C312.136475,116.520294 312.036377,116.405449 320.976959,108.580826 
	C331.751831,99.150887 342.621582,89.829369 353.443146,80.452713 
	C354.556671,79.487846 355.621735,78.467003 357.351471,76.884666 
	C347.620941,75.129044 338.698700,78.049469 329.233673,77.319412 
	C328.188507,73.039833 328.802704,68.627197 328.655792,64.379860 
	C330.396393,63.069874 332.113525,63.696590 333.711365,63.701206 
	C347.855133,63.742046 362.003906,63.921131 376.072144,62.097137 
	C377.803558,61.872654 378.999298,62.372974 379.925690,63.715408 
	C381.694000,66.277893 384.183044,68.377197 385.212402,71.837555 
	C376.242432,78.019226 367.330017,84.272690 358.539368,91.959969 
	C364.635376,91.576439 369.885284,91.544807 375.097015,92.759148 
	C387.324341,95.608109 396.201965,103.903679 397.274048,113.677551 
	C398.847595,128.023788 392.659180,139.530731 380.083069,144.969559 
	C369.006195,149.760025 357.285400,150.742386 345.358154,150.099121 
	C342.474426,149.943588 340.688690,148.649673 340.230530,145.707291 
	C339.704712,142.330414 337.724304,139.226807 338.215363,134.965012 
	C344.247803,135.862137 350.163422,135.784454 356.074127,135.663162 
	C362.303802,135.535339 368.266083,134.185303 373.767670,131.124344 
	C378.444458,128.522247 381.337708,124.724403 381.770020,118.848267 
z"/>
<path fill="#000000" opacity="1.000000" stroke="none" 
	d="
M336.065186,427.950745 
	C332.016113,425.671356 328.586212,422.971619 324.129608,421.636902 
	C322.599182,424.394928 323.192108,427.285431 323.320770,429.970795 
	C323.522644,434.183990 321.758759,435.765411 317.723846,435.349518 
	C316.405151,435.213593 315.061157,435.280701 313.730255,435.314056 
	C310.987366,435.382782 309.804260,433.980865 309.822510,431.334839 
	C309.845001,428.071136 309.827881,424.807129 309.827881,420.855927 
	C304.306580,424.075958 299.538116,426.704193 294.931885,429.591339 
	C291.204010,431.927917 288.301178,432.154266 286.038483,427.676758 
	C285.089752,425.799408 283.518890,424.236450 281.724152,421.859467 
	C289.243713,418.381042 296.764801,415.660919 303.250427,409.954590 
	C300.452545,408.088440 297.646820,408.301514 295.001129,408.521545 
	C291.372070,408.823303 289.768524,407.573303 289.909515,403.792786 
	C290.101776,398.638153 289.988281,393.471741 289.984161,388.310364 
	C289.981720,385.266083 291.294006,383.767670 294.516235,383.781311 
	C309.667542,383.845459 324.819427,383.842041 339.970673,383.766632 
	C343.197174,383.750580 344.510254,385.110626 344.328613,388.275391 
	C344.204803,390.432465 344.305511,392.603058 344.323517,394.767456 
	C344.374939,400.945068 342.610779,407.831085 351.345642,410.495361 
	C348.756287,414.428284 344.720001,415.401093 341.996765,418.184265 
	C344.205933,421.382294 348.399689,421.937744 350.446167,424.982330 
	C346.487183,433.251038 344.734711,433.633728 336.065186,427.950745 
M330.691254,395.641144 
	C330.433289,393.289154 328.656769,393.341400 326.969940,393.336212 
	C320.308380,393.315704 313.646698,393.317841 306.985077,393.322357 
	C305.056763,393.323639 303.175415,393.440369 303.218933,396.106781 
	C303.261414,398.708069 305.135895,398.912201 307.052917,398.918884 
	C313.714386,398.942047 320.376038,398.935516 327.037506,398.909760 
	C328.771210,398.903046 330.452026,398.708160 330.691254,395.641144 
M329.144867,412.161682 
	C331.864624,413.191010 333.245514,411.524719 335.052795,409.511780 
	C331.205627,408.630585 327.959839,408.046326 324.584290,409.581940 
	C325.698914,411.055084 327.173737,411.367035 329.144867,412.161682 
z"/>
<path fill="#000000" opacity="1.000000" stroke="none" 
	d="
M260.594147,433.524384 
	C266.829590,430.688141 268.318359,426.202148 267.451904,419.929535 
	C266.753601,414.874329 267.218658,409.639893 267.378174,404.491455 
	C267.479340,401.226227 266.163879,400.214447 262.947235,400.216675 
	C256.186218,400.221313 253.745712,396.360413 255.815140,389.741913 
	C256.416168,387.819702 257.784393,387.691101 259.304596,387.684509 
	C265.299042,387.658478 271.295105,387.754730 277.287750,387.648132 
	C281.058044,387.581055 281.058014,390.098785 281.070526,392.690125 
	C281.120270,403.014221 281.339844,413.342865 281.093353,423.660217 
	C281.000244,427.557648 282.555603,429.604614 285.634552,431.664398 
	C293.112671,436.667267 301.597412,437.236603 310.024109,437.513123 
	C323.504028,437.955383 336.941681,436.532959 350.379272,435.548401 
	C351.503815,435.466034 352.681793,434.950256 353.980499,436.276672 
	C353.085510,439.707428 352.125153,443.363892 351.179291,447.024109 
	C350.634064,449.134064 348.928314,449.237030 347.235870,449.285339 
	C331.787476,449.726410 316.355621,451.395599 300.881439,449.410156 
	C293.616180,448.477936 287.079498,446.028320 280.995483,442.008301 
	C275.316772,438.256165 273.723816,438.630432 269.167755,443.703400 
	C266.978058,446.141510 265.591003,449.302612 262.505463,451.310394 
	C258.833038,448.623871 256.985199,444.650482 254.651596,441.108093 
	C253.593369,439.501709 255.041214,438.296844 256.117859,437.286530 
	C257.450714,436.035767 258.907104,434.916687 260.594147,433.524384 
z"/>
<path fill="#000000" opacity="1.000000" stroke="none" 
	d="
M270.325928,358.665588 
	C275.228546,361.866364 279.789734,364.928497 283.800537,368.741150 
	C284.613770,369.514221 285.715729,370.481293 286.699158,370.497894 
	C293.854797,370.619110 301.014404,370.538879 308.172058,370.459320 
	C308.844208,370.451874 309.301270,369.831635 309.373962,368.879089 
	C308.609589,366.532623 306.456970,367.403137 304.819305,367.356537 
	C300.489807,367.233429 296.153442,367.231812 291.822510,367.318176 
	C288.520630,367.384003 287.955383,365.389771 288.086853,362.760742 
	C288.211670,360.265381 287.949738,357.545898 291.783661,357.606140 
	C296.281647,357.676819 300.782196,357.595428 305.281525,357.564758 
	C307.330933,357.550812 309.284149,357.566376 309.734039,354.758789 
	C310.724670,348.576385 315.666626,351.729736 318.924072,351.131744 
	C321.992493,350.568420 323.605347,352.165436 323.447998,355.394958 
	C323.426697,355.832611 323.797333,356.289398 324.056671,356.903412 
	C329.980408,357.694794 335.955719,357.746582 341.917603,357.509827 
	C345.398010,357.371613 346.194519,359.098663 346.144318,362.084869 
	C346.095367,364.998627 345.889099,367.444061 341.962463,367.328888 
	C337.300720,367.192139 332.630127,367.261932 327.965881,367.361847 
	C326.439148,367.394531 324.525421,366.700317 323.630188,368.932617 
	C324.332428,371.516846 326.526428,370.631409 328.141510,370.659790 
	C334.638977,370.774139 341.142731,370.866821 347.637085,370.696564 
	C351.623932,370.592041 352.267395,372.692474 352.298401,376.019348 
	C352.330933,379.502502 351.294037,381.247375 347.477905,381.229065 
	C327.480713,381.133057 307.481598,381.064667 287.486145,381.273682 
	C282.829102,381.322357 282.669128,378.395935 282.413727,375.278656 
	C281.805756,375.278656 281.332977,375.142700 281.198853,375.298431 
	C277.229065,379.907471 273.949219,379.141785 269.938538,374.847015 
	C266.359161,371.014038 261.739380,368.152649 257.624969,364.899109 
	C261.400757,357.535889 265.031433,355.713226 270.325928,358.665588 
z"/>
<path fill="#000000" opacity="1.000000" stroke="none" 
	d="
M279.803436,286.687866 
	C290.017273,288.357666 294.652557,294.838776 293.253632,304.891052 
	C292.265930,311.988098 285.371002,317.385284 277.835907,316.959717 
	C269.051178,316.463562 263.074615,309.966675 263.322174,301.182373 
	C263.576935,292.142395 269.445221,286.838196 279.803436,286.687866 
M273.070557,295.548187 
	C268.965424,301.539093 270.497223,308.344116 276.300537,309.551117 
	C280.056824,310.332397 283.274414,309.358032 285.279572,305.825378 
	C287.338409,302.198059 286.946899,298.654755 284.031586,295.771118 
	C280.916870,292.690247 277.301147,292.436401 273.070557,295.548187 
z"/>
<path fill="#000000" opacity="1.000000" stroke="none" 
	d="
M377.965698,184.298065 
	C382.916534,177.043350 390.305084,174.695007 397.742523,177.714386 
	C404.421204,180.425720 407.726501,187.428543 406.161346,195.551056 
	C404.801239,202.609467 397.594910,207.695511 390.138885,206.859299 
	C381.394897,205.878632 375.971558,199.648621 376.377838,190.932419 
	C376.478210,188.778687 376.773682,186.616455 377.965698,184.298065 
M394.516998,199.300003 
	C398.499573,197.134155 400.286774,193.878220 399.067291,189.403671 
	C398.034973,185.615997 395.371429,183.469788 391.442749,183.425842 
	C387.437988,183.381042 384.955658,185.805496 383.745331,189.401245 
	C381.759247,195.301865 386.373199,199.894028 394.516998,199.300003 
z"/>
<path fill="#000000" opacity="1.000000" stroke="none" 
	d="
M106.833252,195.255798 
	C105.881218,194.362747 105.162689,193.703735 103.998245,192.635712 
	C102.798363,196.438553 103.479576,199.879333 103.290329,203.221558 
	C103.154221,205.625000 101.884964,206.309097 99.717537,206.276199 
	C97.620239,206.244370 96.711197,205.253403 96.713600,203.222015 
	C96.723785,194.619507 96.717918,186.016998 96.717918,177.381119 
	C100.918884,176.577820 101.947670,179.797165 103.729248,181.671341 
	C110.751923,189.058990 109.147400,189.588898 116.365623,181.603745 
	C118.062683,179.726395 119.246094,177.048691 123.380730,176.895233 
	C123.380730,182.040192 123.382454,187.072678 123.380119,192.105164 
	C123.378578,195.426895 123.346222,198.748825 123.374901,202.070267 
	C123.395187,204.418900 123.194122,206.365646 120.000237,206.296463 
	C116.785889,206.226837 116.752892,204.132401 116.746201,201.878128 
	C116.737946,199.095001 116.744232,196.311844 116.744232,193.267166 
	C113.067238,193.534851 111.410767,200.842911 106.833252,195.255798 
z"/>
<path fill="#000000" opacity="1.000000" stroke="none" 
	d="
M221.302231,206.255264 
	C216.584518,204.243866 217.060608,198.597610 213.039444,196.046631 
	C211.589691,198.004608 212.245941,200.206070 212.174591,202.228882 
	C212.086517,204.725113 211.464813,206.383957 208.479279,206.320389 
	C205.769196,206.262680 205.087372,204.739944 205.080109,202.459381 
	C205.057358,195.301971 205.051331,188.144394 204.994629,180.987228 
	C204.972107,178.145676 206.100616,176.608627 209.140640,176.737473 
	C211.965363,176.857193 214.830902,176.554520 217.618179,176.910248 
	C224.474289,177.785263 228.675201,185.450623 224.378235,190.628357 
	C220.687546,195.075516 222.348160,197.945328 224.481232,201.580582 
	C225.137817,202.699570 225.950348,203.819809 225.770477,205.350098 
	C224.711945,206.790283 223.109375,206.146591 221.302231,206.255264 
M213.895248,188.627777 
	C216.054047,188.744766 218.672592,189.034836 218.321564,185.849319 
	C218.100449,183.842697 215.892288,183.052429 214.064880,183.706894 
	C211.531250,184.614243 211.876160,186.511581 213.895248,188.627777 
z"/>
<path fill="#000000" opacity="1.000000" stroke="none" 
	d="
M352.435486,301.949615 
	C352.004791,307.132172 353.452820,311.957092 351.584747,317.496765 
	C345.941437,313.397369 342.645630,307.652527 337.333496,303.129333 
	C336.961670,307.095032 336.646149,310.492706 336.323395,313.889709 
	C336.138214,315.838776 334.828644,316.280762 333.155151,316.250244 
	C331.743988,316.224487 330.192505,316.004364 330.090393,314.358826 
	C329.528351,305.303314 329.620697,296.253998 330.018616,285.936493 
	C337.026184,290.099518 339.899231,296.452301 345.759918,301.052734 
	C345.759918,297.257690 345.796539,294.024536 345.748474,290.792694 
	C345.709045,288.143646 346.743530,286.729828 349.592072,286.860352 
	C352.392456,286.988617 352.759521,288.844604 352.725250,290.992432 
	C352.669495,294.488953 352.535950,297.984222 352.435486,301.949615 
z"/>
<path fill="#000000" opacity="1.000000" stroke="none" 
	d="
M320.664703,189.014847 
	C320.663666,187.521637 320.423615,186.449829 320.707123,185.541397 
	C321.639862,182.552414 318.064148,177.645966 324.135345,176.823792 
	C333.832489,175.510635 339.062744,177.783340 340.810669,183.732193 
	C341.689087,186.721771 341.212006,189.707291 339.080597,191.605133 
	C335.828064,194.501266 336.960785,196.936066 338.725189,199.798416 
	C339.825073,201.582703 341.267303,203.296814 341.217590,205.686996 
	C331.913361,209.155243 333.033508,198.665344 328.292603,195.968521 
	C326.610107,198.279633 327.455719,200.681030 327.288818,202.906235 
	C327.125641,205.082352 326.396423,206.284180 324.006653,206.281860 
	C321.670135,206.279602 320.700653,205.218582 320.706604,202.969574 
	C320.718475,198.483459 320.681976,193.997253 320.664703,189.014847 
M332.930359,184.555527 
	C330.966553,183.312866 328.886749,182.443817 327.590973,185.189987 
	C326.960266,186.526688 327.124695,188.356232 329.194641,188.591904 
	C331.622101,188.868301 334.119598,188.858002 332.930359,184.555527 
z"/>
<path fill="#000000" opacity="1.000000" stroke="none" 
	d="
M156.131958,312.355347 
	C156.151535,315.619659 154.547531,316.463745 151.932617,316.264740 
	C149.370041,316.069702 149.139465,314.257019 149.125534,312.365723 
	C149.075363,305.546295 149.028976,298.725586 149.119354,291.907166 
	C149.149170,289.657837 148.906830,286.964417 152.423660,286.870178 
	C156.168243,286.769806 156.113205,289.414978 156.146317,291.997131 
	C156.159012,292.987061 156.148376,293.977295 156.148376,295.477448 
	C160.368652,292.481049 160.779755,284.059906 168.546188,287.567871 
	C168.807281,290.274780 166.837601,291.858521 165.668701,293.765594 
	C160.024826,302.973663 159.884369,299.868927 165.997971,309.206696 
	C167.089920,310.874573 168.226227,312.515076 169.260681,314.217621 
	C169.482559,314.582825 169.351700,315.162323 169.381454,315.614807 
	C162.027313,318.869019 160.447311,312.224670 157.164551,308.481140 
	C155.476929,309.353455 156.498871,310.858215 156.131958,312.355347 
z"/>
<path fill="#000000" opacity="1.000000" stroke="none" 
	d="
M205.119690,293.237946 
	C205.191071,291.775238 205.237396,290.776886 205.329712,289.782806 
	C205.513275,287.806030 206.556366,286.808899 208.600967,286.839203 
	C210.799911,286.871857 212.100037,287.844452 212.129059,290.111481 
	C212.188766,294.776184 212.179306,299.441711 212.210739,304.106842 
	C212.228439,306.735382 212.463577,309.377045 215.882172,309.559448 
	C219.226685,309.737946 220.150421,307.062988 220.325623,304.567749 
	C220.651627,299.924744 220.520737,295.247406 220.515640,290.584442 
	C220.513474,288.587280 220.672211,286.897095 223.297546,286.817200 
	C225.754669,286.742462 227.135971,287.753113 227.138306,290.268311 
	C227.143234,295.598602 227.430359,300.957764 226.979858,306.252136 
	C226.388718,313.199524 222.406113,316.582764 215.855911,316.505676 
	C209.561371,316.431610 206.154190,313.188324 205.507965,306.179108 
	C205.126709,302.043884 205.230011,297.864044 205.119690,293.237946 
z"/>
<path fill="#000000" opacity="1.000000" stroke="none" 
	d="
M279.792236,203.918701 
	C269.869110,209.708664 261.712036,205.098068 261.665894,194.095169 
	C261.647095,189.611542 261.698242,185.127625 261.680359,180.643997 
	C261.671234,178.362808 262.251953,176.770737 265.009674,176.824600 
	C267.744354,176.878036 268.290222,178.512619 268.284729,180.763474 
	C268.273407,185.413223 268.295654,190.063049 268.310608,194.712830 
	C268.319000,197.313995 269.154694,199.418533 272.103363,199.588211 
	C275.307648,199.772598 276.527557,197.638763 276.606445,194.842499 
	C276.737457,190.196014 276.679718,185.543930 276.679535,180.894196 
	C276.679443,178.732376 276.940796,176.897507 279.790283,176.850082 
	C282.423706,176.806259 283.303162,178.173431 283.284576,180.559692 
	C283.243256,185.872971 283.346344,191.189896 283.178802,196.498642 
	C283.093567,199.199951 282.075409,201.679138 279.792236,203.918701 
z"/>
<path fill="#000000" opacity="1.000000" stroke="none" 
	d="
M167.417358,197.765167 
	C167.424286,199.892044 167.376419,201.553314 167.447174,203.209518 
	C167.533020,205.218933 166.840469,206.334946 164.630066,206.311722 
	C162.581741,206.290207 160.903046,205.901413 160.884079,203.433136 
	C160.824265,195.637207 160.803665,187.840820 160.808563,180.044632 
	C160.809982,177.784714 162.056229,176.811157 164.296677,176.829697 
	C166.742737,176.849960 167.387665,178.270340 167.386047,180.375626 
	C167.381683,186.016174 167.403656,191.656769 167.417358,197.765167 
z"/>
</svg>